<?xml version="1.0" encoding="utf-8"?>
<!-- Generator: Adobe Illustrator 23.0.0, SVG Export Plug-In . SVG Version: 6.00 Build 0)  -->
<svg version="1.1" id="Layer_1" xmlns="http://www.w3.org/2000/svg" xmlns:xlink="http://www.w3.org/1999/xlink" x="0px" y="0px"
	 viewBox="0 0 200 250" style="enable-background:new 0 0 200 250;" xml:space="preserve">
<style type="text/css">
	.st0{fill:url(#SVGID_1_);}
	.st1{fill:#E5E5E5;}
	.st2{opacity:0.14;fill:#FFFFFF;}
	.st3{fill:#FFFFFF;}
</style>
<g>
	<linearGradient id="SVGID_1_" gradientUnits="userSpaceOnUse" x1="9.9509" y1="125.8752" x2="190.3869" y2="125.8752">
		<stop  offset="0" style="stop-color:#00599F"/>
		<stop  offset="1" style="stop-color:#105495"/>
	</linearGradient>
	<polygon class="st0" points="177.8,214.5 100.2,245.8 22.6,214.5 10,6 190.4,6 	"/>
	<path class="st1" d="M79.8,106.2H66.1v13.2h14.4c7.4,0,13.9,0.5,19.5,1.4v-16.5C94.3,105.5,87.6,106.2,79.8,106.2z"/>
	<path class="st1" d="M88.9,172.2c-14.9,0-28.3-3.7-40.1-11V178c9.7,4.9,22.8,7.3,39.3,7.3c4.2,0,8.1-0.2,11.9-0.6v-13.3
		C96.6,172,92.9,172.2,88.9,172.2z"/>
	<path class="st1" d="M94.9,44.9c-15.1,0-28.3,2.6-39.4,7.8v15.2C66.3,61.3,77.7,58,89.9,58c3.7,0,7,0.2,10.1,0.7V45
		C98.3,44.9,96.6,44.9,94.9,44.9z"/>
	<path class="st2" d="M100,26.6V45c12.2,0.6,22.1,3.6,29.8,9c8.7,6.1,13.1,13.8,13.1,23.3c0,17.9-11.6,29.4-34.8,34.5v0.4
		c12.5,0.9,22.4,4.4,29.8,10.3c7.4,5.9,11.1,13.3,11.1,22.1c0,12.2-5.6,22-16.7,29.5c-8.6,5.8-19.4,9.3-32.2,10.6v40.4l64.6-25.9
		l10.5-172.7H100z"/>
	<path class="st2" d="M122.6,81.2c0-12.8-7.6-20.3-22.6-22.4v45.6C115.1,101,122.6,93.3,122.6,81.2z"/>
	<path class="st2" d="M128.7,146c0-13.7-9.6-22.1-28.7-25.2v50.7c7-1,13-3.1,17.9-6.3C125.1,160.4,128.7,154,128.7,146z"/>
	<path class="st2" d="M149,144.6c0-8.8-3.7-16.2-11.1-22.1c-7.4-5.9-17.3-9.3-29.8-10.3v-0.4c23.2-5.1,34.8-16.6,34.8-34.5
		c0-9.5-4.4-17.2-13.1-23.3c-7.7-5.3-17.6-8.3-29.8-9v13.7c15.1,2.2,22.6,9.6,22.6,22.4c0,12.1-7.5,19.8-22.6,23.1v16.5
		c19.1,3.1,28.7,11.5,28.7,25.2c0,8-3.6,14.4-10.8,19.1c-4.8,3.2-10.8,5.3-17.9,6.3v13.3c12.9-1.3,23.6-4.9,32.2-10.6
		C143.4,166.6,149,156.8,149,144.6z"/>
	<path class="st3" d="M149,144.6c0-8.8-3.7-16.2-11.1-22.1c-7.4-5.9-17.3-9.3-29.8-10.3v-0.4c23.2-5.1,34.8-16.6,34.8-34.5
		c0-9.5-4.4-17.2-13.1-23.3c-7.7-5.3-17.6-8.3-29.8-9v13.7c15.1,2.2,22.6,9.6,22.6,22.4c0,12.1-7.5,19.8-22.6,23.1v16.5
		c19.1,3.1,28.7,11.5,28.7,25.2c0,8-3.6,14.4-10.8,19.1c-4.8,3.2-10.8,5.3-17.9,6.3v13.3c12.9-1.3,23.6-4.9,32.2-10.6
		C143.4,166.6,149,156.8,149,144.6z"/>
</g>
</svg>
