<?xml version="1.0" encoding="utf-8"?>
<!-- Generator: Adobe Illustrator 23.0.0, SVG Export Plug-In . SVG Version: 6.00 Build 0)  -->
<svg version="1.1" id="Layer_1" xmlns="http://www.w3.org/2000/svg" xmlns:xlink="http://www.w3.org/1999/xlink" x="0px" y="0px"
	 viewBox="0 0 64 64" enable-background="new 0 0 64 64" xml:space="preserve">
<g>
	<path d="M61.823,11.961H2.298C1.029,11.961,0,12.975,0,14.227v36.209c0,1.252,1.029,2.267,2.298,2.267h59.525
		c1.269,0,2.298-1.015,2.298-2.267V14.227C64.121,12.975,63.092,11.961,61.823,11.961z M61.038,47.865H3.083v-33.37h57.955V47.865z"
		/>
	<path d="M37.609,53.919H26.511c0,2.307-1.317,4.289-3.236,5.32L22.812,60h18.496l-0.463-0.761
		C38.927,58.208,37.609,56.226,37.609,53.919z"/>
	<g>
		<g>
			<path stroke="#FFFFFF" stroke-miterlimit="10" d="M51.56,4.89c2.616,2.58,0,5.16,0,5.16S26.125,34.842,23.658,32.409
				C21.192,29.977,46.329,4.89,46.329,4.89S48.944,2.31,51.56,4.89z"/>
		</g>
		<g>
			<path d="M23.402,36.427c2.75-0.958,0.24-3.953-0.042-4.177c-2.133-1.7-3.547-1.607-4.432,0.299s-0.674,2.863-2.991,3.158
				C18.09,37.566,21.241,37.181,23.402,36.427z"/>
		</g>
	</g>
</g>
</svg>
