<?xml version="1.0" encoding="utf-8"?>
<!-- Generator: Adobe Illustrator 23.0.0, SVG Export Plug-In . SVG Version: 6.00 Build 0)  -->
<svg version="1.1" id="Layer_1" xmlns="http://www.w3.org/2000/svg" xmlns:xlink="http://www.w3.org/1999/xlink" x="0px" y="0px"
	 viewBox="0 0 200 250" enable-background="new 0 0 200 250" xml:space="preserve">
<g>
	<rect x="99.986" y="44.984" opacity="0.14" fill="#373568" width="42.961" height="14.32"/>
	<path opacity="0.14" fill="#373568" d="M150.964,141.351c0-12.965-5.181-23.172-15.542-30.622
		c-8.755-6.295-20.576-9.92-35.437-10.896v14.623c7.544,1.192,13.765,3.384,18.661,6.577c7.812,5.096,11.718,12.191,11.718,21.286
		c0,9.16-3.824,16.513-11.471,22.06c-5.18,3.758-11.502,6.211-18.908,7.423v13.708c14.01-1.349,25.438-5.257,34.265-11.746
		C145.393,165.573,150.964,154.769,150.964,141.351z"/>
	<polygon fill="#CE462C" points="179.36,215.879 100.142,247.75 20.923,215.879 8.042,3 192.241,3 	"/>
	<path fill="none" d="M76.461,99.941c5.427-0.257,10.442-0.387,15.048-0.387c2.932,0,5.749,0.1,8.476,0.28V59.304H76.461V99.941z"/>
	<path fill="#E5E5E5" d="M88.673,172.7c-12.501,0-24.794-3.063-36.882-9.192v16.835c8.058,3.805,20.27,5.709,36.635,5.709
		c4.036,0,7.882-0.188,11.56-0.542v-13.708C96.458,172.38,92.705,172.7,88.673,172.7z"/>
	<path fill="#E5E5E5" d="M91.509,99.554c-4.606,0-9.621,0.13-15.048,0.387V59.304h23.525v-14.32H57.341v69.567
		c13.569-0.774,22.82-1.161,27.754-1.161c5.434,0,10.396,0.356,14.89,1.066V99.833C97.259,99.654,94.442,99.554,91.509,99.554z"/>
	<path opacity="0.14" fill="#FFFFFF" d="M130.365,142.319c0-9.095-3.906-16.19-11.718-21.286
		c-4.897-3.193-11.117-5.385-18.661-6.577v57.346c7.406-1.212,13.728-3.665,18.908-7.423
		C126.541,158.832,130.365,151.479,130.365,142.319z"/>
	<path opacity="0.14" fill="#FFFFFF" d="M99.986,24.043v20.941h42.961v14.32H99.986v40.529c14.861,0.976,26.682,4.601,35.437,10.896
		c10.362,7.45,15.542,17.657,15.542,30.622c0,13.418-5.572,24.222-16.714,32.413c-8.827,6.489-20.255,10.397-34.265,11.746v41.197
		l65.946-26.391l10.723-176.274H99.986z"/>
	<g>
		<rect x="99.986" y="44.984" fill="#FFFFFF" width="42.961" height="14.32"/>
		<path fill="#FFFFFF" d="M135.422,110.729c-8.755-6.295-20.576-9.92-35.437-10.896v14.623c7.544,1.192,13.765,3.384,18.661,6.577
			c7.812,5.096,11.718,12.191,11.718,21.286c0,9.16-3.824,16.513-11.471,22.06c-5.18,3.758-11.502,6.211-18.908,7.423v13.708
			c14.01-1.349,25.438-5.257,34.265-11.746c11.142-8.191,16.714-18.995,16.714-32.413
			C150.964,128.386,145.784,118.179,135.422,110.729z"/>
	</g>
</g>
</svg>
